HIERARCHY
ROOT Hips
{
	OFFSET 0.00000 0.00000 0.00000
	CHANNELS 6 Xposition Yposition Zposition Zrotation Yrotation Xrotation 
	JOINT LHipJoint
	{
		OFFSET 0 0 0
		CHANNELS 3 Zrotation Yrotation Xrotation
		JOINT LeftUpLeg
		{
			OFFSET 1.26600 -1.82114 0.91038
			CHANNELS 3 Zrotation Yrotation Xrotation
			JOINT LeftLeg
			{
				OFFSET 2.50076 -6.87080 0.00000
				CHANNELS 3 Zrotation Yrotation Xrotation
				JOINT LeftFoot
				{
					OFFSET 2.57364 -7.07102 0.00000
					CHANNELS 3 Zrotation Yrotation Xrotation
					JOINT LeftToeBase
					{
						OFFSET 0.13572 -0.37290 1.97004
						CHANNELS 3 Zrotation Yrotation Xrotation
						End Site
						{
							OFFSET 0.00000 -0.00000 1.01383
						}
					}
				}
			}
		}
	}
	JOINT RHipJoint
	{
		OFFSET 0 0 0
		CHANNELS 3 Zrotation Yrotation Xrotation
		JOINT RightUpLeg
		{
			OFFSET -1.20803 -1.82114 0.91038
			CHANNELS 3 Zrotation Yrotation Xrotation
			JOINT RightLeg
			{
				OFFSET -2.54916 -7.00377 0.00000
				CHANNELS 3 Zrotation Yrotation Xrotation
				JOINT RightFoot
				{
					OFFSET -2.56374 -7.04382 0.00000
					CHANNELS 3 Zrotation Yrotation Xrotation
					JOINT RightToeBase
					{
						OFFSET -0.23520 -0.64621 2.09921
						CHANNELS 3 Zrotation Yrotation Xrotation
						End Site
						{
							OFFSET -0.00000 -0.00000 1.10065
						}
					}
				}
			}
		}
	}
	JOINT LowerBack
	{
		OFFSET 0 0 0
		CHANNELS 3 Zrotation Yrotation Xrotation
		JOINT Spine
		{
			OFFSET 0.05492 2.10797 -0.12074
			CHANNELS 3 Zrotation Yrotation Xrotation
			JOINT Spine1
			{
				OFFSET 0.04577 2.11592 -0.04483
				CHANNELS 3 Zrotation Yrotation Xrotation
				JOINT Neck
				{
					OFFSET 0 0 0
					CHANNELS 3 Zrotation Yrotation Xrotation
					JOINT Neck1
					{
						OFFSET -0.10759 1.80167 0.15770
						CHANNELS 3 Zrotation Yrotation Xrotation
						JOINT Head
						{
							OFFSET 0.09237 1.77509 -0.40848
							CHANNELS 3 Zrotation Yrotation Xrotation
							End Site
							{
								OFFSET 0.03805 1.84093 -0.15754
							}
						}
					}
				}
				JOINT LeftShoulder
				{
					OFFSET 0 0 0
					CHANNELS 3 Zrotation Yrotation Xrotation
					JOINT LeftArm
					{
						OFFSET 3.42372 1.09575 -0.28209
						CHANNELS 3 Zrotation Yrotation Xrotation
						JOINT LeftForeArm
						{
							OFFSET 4.95681 -0.00000 0.00000
							CHANNELS 3 Zrotation Yrotation Xrotation
							JOINT LeftHand
							{
								OFFSET 3.40915 -0.00000 0.00000
								CHANNELS 3 Zrotation Yrotation Xrotation
								JOINT LeftFingerBase
								{
									OFFSET 0 0 0
									CHANNELS 3 Zrotation Yrotation Xrotation
									JOINT LeftHandIndex1
									{
										OFFSET 0.61640 -0.00000 0.00000
										CHANNELS 3 Zrotation Yrotation Xrotation
										End Site
										{
											OFFSET 0.49696 -0.00000 0.00000
										}
									}
								}
								JOINT LThumb
								{
									OFFSET 0 0 0
									CHANNELS 3 Zrotation Yrotation Xrotation
									End Site
									{
										OFFSET 0.50455 -0.00000 0.50455
									}
								}
							}
						}
					}
				}
				JOINT RightShoulder
				{
					OFFSET 0 0 0
					CHANNELS 3 Zrotation Yrotation Xrotation
					JOINT RightArm
					{
						OFFSET -3.24731 1.15872 -0.32221
						CHANNELS 3 Zrotation Yrotation Xrotation
						JOINT RightForeArm
						{
							OFFSET -5.35200 -0.00000 0.00000
							CHANNELS 3 Zrotation Yrotation Xrotation
							JOINT RightHand
							{
								OFFSET -3.43721 -0.00000 -0.00000
								CHANNELS 3 Zrotation Yrotation Xrotation
								JOINT RightFingerBase
								{
									OFFSET 0 0 0
									CHANNELS 3 Zrotation Yrotation Xrotation
									JOINT RightHandIndex1
									{
										OFFSET -0.72009 -0.00000 0.00000
										CHANNELS 3 Zrotation Yrotation Xrotation
										End Site
										{
											OFFSET -0.58056 -0.00000 0.00000
										}
									}
								}
								JOINT RThumb
								{
									OFFSET 0 0 0
									CHANNELS 3 Zrotation Yrotation Xrotation
									End Site
									{
										OFFSET -0.58942 -0.00000 0.58942
									}
								}
							}
						}
					}
				}
			}
		}
	}
}
MOTION
Frames: 13
Frame Time: 0.0243902
0.00 0.00 0.00 -168.1570 5.1837 -185.3010 0.0000 0.0000 0.0000 -1.2492 -2.9771 -32.4735 4.4652 12.7550 38.4580 0.9019 6.8152 16.9505 0.6712 -5.2391 -14.5917 0.0000 0.0000 0.0000 34.7351 -6.8773 15.2437 -2.2531 -9.3746 26.9741 -2.0012 3.3361 -25.9207 -0.0489 1.4272 -3.9251 10.1875 2.0631 6.5616 4.8329 4.0395 4.5183 -0.8535 2.5089 1.3469 -10.4971 1.9856 -9.1343 6.7796 -3.6349 41.1240 3.7639 -4.3048 16.5805 0.0000 0.0000 0.0000 -87.4683 7.1683 18.1586 24.1134 -35.2840 -7.7720 -0.0000 0.0000 -10.0180 22.4893 20.8414 8.3790 -7.1250 0.0000 -0.0000 -6.2733 52.2657 -1.1256 0.0000 0.0000 0.0000 83.5574 6.2606 21.4698 -18.0980 28.2824 -4.5956 0.0000 -0.0000 -9.4196 -23.5596 13.7503 -5.9173 7.1250 -0.0000 -0.0000 2.6295 -15.0438 1.8589
0.00 0.00 0.00 -169.1870 5.6387 -185.8350 0.0000 0.0000 0.0000 -3.9418 -3.1719 -21.3957 1.8149 8.4694 24.1490 1.4033 10.9757 21.4191 1.2277 -7.0272 -19.7961 0.0000 0.0000 0.0000 29.3582 -9.4315 15.3672 -5.3420 -13.7589 42.2802 -2.9218 9.4200 -30.8521 -0.4983 4.5258 -12.5608 8.3345 0.8949 3.3615 5.3413 1.9251 4.2880 0.8707 1.4062 2.6241 -8.5033 -4.6210 -9.7968 1.0927 2.2307 43.2221 3.1415 1.8985 17.7215 0.0000 0.0000 0.0000 -90.8185 11.3832 15.1071 16.7874 -26.5766 -3.9917 -0.0000 0.0000 -0.3388 19.9521 14.5643 5.2160 -7.1250 0.0000 -0.0000 -7.0687 45.3119 -0.0547 0.0000 0.0000 0.0000 82.6886 2.7595 20.3045 -18.2878 28.5241 -4.6859 0.0000 -0.0000 -9.0193 -19.3437 13.4240 -4.6592 7.1250 -0.0000 -0.0000 5.5072 -15.8280 3.8142
0.00 0.00 0.00 -168.5090 6.1542 -185.9570 0.0000 0.0000 0.0000 -4.6842 1.0997 -18.3517 2.4798 9.8010 28.3347 0.1414 -6.1280 11.8324 1.1590 -6.8349 -19.2272 0.0000 0.0000 0.0000 26.8756 -9.9703 16.5910 -7.4695 -15.7149 50.6285 -2.7579 13.6354 -30.0788 -0.6142 5.0158 -13.9537 9.3405 0.7220 2.1470 5.7081 1.6017 3.5251 0.7164 1.2445 2.5168 -8.1339 -4.6032 -9.6672 0.6655 2.5077 43.6457 2.9649 2.0759 17.9400 -0.0000 -0.0000 0.0000 -92.8729 12.3388 9.7235 12.3621 -20.3454 -2.2266 -0.0000 -0.0000 5.2739 16.7341 19.4268 5.7107 -7.1250 0.0000 -0.0000 -11.4571 49.8490 -1.3857 -0.0000 -0.0000 0.0000 83.0261 -0.7385 15.5559 -16.9930 26.8486 -4.0842 0.0000 -0.0000 -10.7594 -21.1973 12.5394 -4.8129 7.1250 -0.0000 -0.0000 4.1984 -16.5856 2.8330
0.00 0.00 0.00 -173.6920 5.6610 -187.1390 0.0000 0.0000 0.0000 -12.8746 2.2671 -13.7487 3.6032 11.6128 34.3755 0.0785 -9.7586 -8.1102 0.3506 -3.8042 -10.5264 0.0000 0.0000 0.0000 20.6794 -3.6066 9.2273 -15.1174 -19.4186 75.5900 0.1336 8.2101 -2.3960 -0.0209 -0.9337 2.5663 3.5697 1.2849 5.2585 4.0661 2.2618 3.3619 2.0775 1.3147 0.4803 -8.3129 -5.1386 -10.1393 1.7781 1.4617 44.3486 3.4112 1.7735 18.5460 -0.0000 0.0000 0.0000 -94.3740 7.8139 -3.5524 9.0417 -15.2269 -1.2111 -0.0000 -0.0000 12.1857 17.7272 26.4048 8.0908 -7.1250 0.0000 -0.0000 -13.5110 56.9969 -4.0218 -0.0000 0.0000 0.0000 86.8425 1.0577 -14.3504 -8.3150 14.0622 -1.0273 0.0000 0.0000 4.1002 -26.0605 15.0686 -7.2456 7.1250 -0.0000 -0.0000 1.0275 -13.2981 0.7637
0.00 0.00 0.00 -176.8810 0.2507 -182.9290 0.0000 0.0000 0.0000 -17.8447 -0.5132 -4.2427 0.9521 6.2139 17.4062 -0.0320 -6.5703 -3.7341 0.0993 -2.0320 -5.5941 0.0000 0.0000 0.0000 16.2421 -1.2259 -24.6118 -21.1309 -19.9693 93.3082 -1.1705 2.0863 -19.8656 -0.0085 0.5942 -1.6329 -0.7481 -0.2690 8.1997 2.8233 0.0307 4.1765 3.3335 0.1532 -0.2756 -8.3312 -4.0849 -10.0332 1.6769 2.8353 43.2894 3.4628 2.1553 17.7487 -0.0000 -0.0000 0.0000 -87.6163 6.5322 23.3934 29.4785 -40.4422 -11.0698 -0.0000 0.0000 -7.4997 19.1998 17.8816 6.1032 -7.1250 0.0000 -0.0000 -8.6095 48.6504 -0.7805 -0.0000 -0.0000 0.0000 87.2765 -1.3662 11.6776 -16.8786 26.6975 -4.0327 0.0000 -0.0000 -7.7102 -27.9461 13.2807 -6.9483 7.1250 -0.0000 -0.0000 -0.4038 -15.0205 -0.2854
0.00 0.00 0.00 -176.6420 -3.5447 -181.7730 0.0000 0.0000 0.0000 -17.2733 -3.2436 -5.8072 1.2875 7.1900 20.2795 -0.0431 -8.8703 -5.3684 0.0195 -0.9016 -2.4782 0.0000 0.0000 0.0000 15.8604 1.8497 -29.3139 -15.9356 -19.5992 78.0398 -0.8633 7.3896 -16.6210 -0.4420 4.2658 -11.8257 -0.8992 -0.4819 9.2356 3.3213 -1.1807 4.5458 4.0595 -0.8564 -0.3728 -9.0094 3.6311 -10.4567 4.6129 -0.9884 42.7890 2.9372 -3.3800 17.4892 0.0000 -0.0000 0.0000 -85.0934 3.1846 25.3319 34.8310 -44.6911 -14.6944 -0.0000 0.0000 -8.4487 19.4320 17.2662 5.9777 -7.1250 0.0000 -0.0000 -8.2166 48.0494 -0.6221 0.0000 -0.0000 0.0000 84.9341 0.8372 14.9289 -18.5840 28.8985 -4.8282 0.0000 -0.0000 -11.6517 -26.6300 13.5872 -6.7182 7.1250 -0.0000 -0.0000 0.5202 -14.8508 0.3695
0.00 0.00 0.00 -175.3200 -6.2172 -181.0410 0.0000 0.0000 0.0000 -15.2210 -5.0526 -7.7853 1.7476 8.3193 23.6883 -0.0628 -11.1859 -6.8686 0.0002 -0.0909 -0.2498 0.0000 0.0000 0.0000 16.9291 5.0643 -27.7491 -10.8946 -17.8831 62.4389 -0.6536 10.0726 -15.0446 -0.4143 4.1315 -11.4468 -0.0136 -0.9170 9.2039 4.0291 -1.7568 4.6954 4.3464 -1.1729 -0.1547 -9.3228 3.5896 -10.4166 5.0147 -1.2346 43.0859 3.1517 -3.4860 17.6816 0.0000 0.0000 0.0000 -84.5763 1.0276 24.6710 36.8586 -46.0946 -16.1381 -0.0000 0.0000 -8.1648 19.7166 16.6627 5.8672 -7.1250 0.0000 -0.0000 -7.7876 47.4650 -0.4764 0.0000 0.0000 0.0000 83.5696 2.8184 15.2131 -17.9763 28.1268 -4.5380 0.0000 -0.0000 -11.3119 -24.6446 14.0703 -6.3641 7.1250 -0.0000 -0.0000 1.9096 -14.5697 1.3686
0.00 0.00 0.00 -175.1670 -9.5485 -180.9790 0.0000 0.0000 0.0000 -14.3412 -6.3598 -8.4985 2.1320 9.1358 26.2210 -0.1613 -13.7971 -7.5930 0.0111 0.6791 1.8662 0.0000 0.0000 0.0000 16.3388 9.8599 -21.7547 -6.2199 -14.6381 45.8578 -0.1373 15.0778 -12.0438 -0.4688 4.3914 -12.1804 -0.0425 -1.1965 9.2717 4.3854 -2.1439 4.7162 4.7737 -1.3794 -0.1234 -9.5765 3.3847 -9.6801 5.2127 -1.6921 43.0980 3.2188 -3.6822 17.5523 0.0000 0.0000 0.0000 -84.4999 0.1835 24.3639 38.4431 -47.1199 -17.2895 -0.0000 0.0000 -8.8647 21.0175 17.9478 6.7522 -7.1250 0.0000 -0.0000 -6.8865 48.9934 -0.6812 0.0000 0.0000 0.0000 82.8731 3.6791 13.8443 -17.2316 27.1620 -4.1925 0.0000 -0.0000 -10.2056 -23.7693 13.5752 -5.9019 7.1250 -0.0000 -0.0000 2.4755 -15.2088 1.7410
0.00 0.00 0.00 -1.9125 -13.8781 -360.7230 0.0000 0.0000 0.0000 -17.5953 -1.3478 -10.7691 2.5979 10.0138 29.0215 0.1560 -14.7277 -12.0219 0.2631 3.3001 9.1154 0.0000 0.0000 0.0000 23.0350 -17.8056 -18.7276 -6.1183 -14.5420 45.4548 -0.8670 -10.8257 -24.6242 -0.0112 -0.6819 1.8740 4.4242 1.2999 7.6658 3.7644 2.0703 3.3029 1.2322 1.0359 -0.8602 -7.2580 0.2610 -15.2025 0.3028 2.6720 40.1082 1.9190 -0.0124 17.1356 -0.0000 -0.0000 0.0000 -89.1020 4.6990 14.9312 17.2393 -27.1721 -4.1960 -0.0000 0.0000 -4.0875 20.4422 22.7268 8.1944 -7.1250 0.0000 -0.0000 -9.0057 53.8405 -1.9696 -0.0000 -0.0000 0.0000 82.1408 -2.5947 4.8798 -12.4404 20.4619 -2.2539 0.0000 -0.0000 -6.0710 -20.6024 12.2032 -4.5433 7.1250 -0.0000 -0.0000 4.6004 -16.9967 3.0646
0.00 0.00 0.00 -7.5991 3.2257 -362.4970 0.0000 0.0000 0.0000 -6.8964 -6.5406 -27.4297 10.3842 17.6203 60.7650 -0.7865 -18.9081 -4.6738 1.0058 -6.3815 -17.8956 0.0000 0.0000 0.0000 32.2389 -8.4764 -5.6438 -1.7218 -8.2608 23.5089 -0.8509 9.0908 -16.7005 -0.5165 -4.6061 12.7884 8.8909 0.6719 9.7847 5.1431 1.8002 4.1248 0.1845 0.9479 -1.0578 -9.6922 -1.5193 -12.8765 1.2178 0.4284 40.5726 2.3835 -1.0809 16.9580 -0.0000 -0.0000 0.0000 -91.0182 5.4619 23.2162 20.5890 -31.3454 -5.8347 -0.0000 0.0000 -3.5969 17.1847 18.2403 5.5289 -7.1250 0.0000 -0.0000 -10.6337 48.7185 -0.9855 -0.0000 -0.0000 0.0000 81.5119 5.8521 17.4177 -15.8659 25.3385 -3.5884 0.0000 -0.0000 -9.9661 -20.4247 14.3848 -5.2856 7.1250 -0.0000 -0.0000 4.8013 -14.7115 3.4369
0.00 0.00 0.00 -8.6325 3.5072 -363.3330 0.0000 0.0000 0.0000 -4.0015 -5.0239 -39.7884 16.2307 19.6559 78.9182 0.1873 -14.3718 -12.1331 1.0648 -6.5604 -18.4193 0.0000 0.0000 0.0000 33.5073 -11.3203 -1.6155 -0.8738 -5.9598 16.6678 -0.4877 8.9847 -13.0556 -0.3718 -3.9167 10.8424 10.3014 1.1299 11.3533 5.4179 2.7355 4.4606 -0.4323 1.4158 -1.4428 -10.2162 -2.1296 -12.4448 2.2557 -0.8138 39.8046 2.7146 -1.4892 16.5283 0.0000 0.0000 0.0000 -90.4397 5.5409 27.4708 23.0520 -34.1457 -7.1675 -0.0000 0.0000 -2.2362 16.4496 17.4374 5.0562 -7.1250 0.0000 -0.0000 -11.0758 47.8004 -0.7742 0.0000 0.0000 0.0000 81.3334 7.1516 13.8680 -13.0764 21.3990 -2.4811 0.0000 -0.0000 -5.6590 -19.2230 8.8941 -3.0858 7.1250 -0.0000 -0.0000 5.5239 -20.5898 3.2433
0.00 0.00 0.00 -9.4779 3.0475 -364.2160 0.0000 0.0000 0.0000 -0.3094 -5.7000 -57.8272 20.5027 19.9939 91.4699 -0.0598 -19.1203 -12.9264 1.3488 -7.3525 -20.7640 0.0000 0.0000 0.0000 34.2829 -13.9640 7.4851 -0.0445 -1.3613 3.7436 -0.1480 6.2150 -7.5675 -0.2247 -3.0514 8.4219 12.1981 1.6412 12.4619 5.4656 3.6763 5.4668 -1.5262 1.9608 -0.7581 -10.2485 -2.6986 -12.3431 2.3916 -1.6941 40.1547 2.6427 -1.8358 16.7788 -0.0000 0.0000 0.0000 -90.2528 5.5011 27.2326 23.6829 -34.8271 -7.5247 -0.0000 0.0000 -3.4972 17.2489 16.7859 5.1239 -7.1250 0.0000 -0.0000 -10.1348 47.2502 -0.5683 -0.0000 0.0000 0.0000 82.0665 7.9280 13.8712 -12.6548 20.7793 -2.3294 0.0000 -0.0000 -4.7537 -20.8239 9.6592 -3.6515 7.1250 -0.0000 -0.0000 4.3840 -19.6751 2.6598
0.00 0.00 0.00 -9.6502 0.5533 -354.5100 0.0000 0.0000 0.0000 -0.5254 -12.1654 -55.0745 11.7412 18.2791 65.1663 -0.5436 -17.6191 -6.3489 0.5111 4.5827 12.7221 0.0000 0.0000 0.0000 29.2046 -11.8246 13.5372 0.0000 -0.0000 0.0000 -0.9054 -0.4435 17.8430 -0.1173 2.2077 -6.0801 8.1856 2.0196 12.5890 4.0845 3.7607 4.5815 -0.8392 1.8914 -1.9664 -8.7190 -2.1601 -12.2790 2.7647 -1.5707 39.6453 2.5371 -1.5240 16.4183 -0.0000 -0.0000 0.0000 -89.1039 3.6920 23.9944 18.5388 -28.8416 -4.8064 -0.0000 0.0000 -4.4423 17.9934 18.5100 5.8871 -7.1250 0.0000 -0.0000 -9.9492 49.1135 -1.0184 -0.0000 -0.0000 0.0000 86.5669 4.5471 18.0965 -13.7037 22.3095 -2.7146 0.0000 -0.0000 -4.4931 -19.1486 12.9594 -4.4526 7.1250 -0.0000 -0.0000 5.6292 -16.3323 3.8379
